# xmcd CD database file
# 
# Track frame offsets:
# 	182
# 	7862
# 	14737
# 	20170
# 	48872
# 	123002
# 	145582
# 	151272
# 	158312
# 	164655
# 	173307
# 	181000
# 	184145
# 	202430
# 	211907
# 	245542
# 	253380
# 	262950
# 	289817
# 
# Disc length: 4206 seconds
# 
# Submitted via: Nero 6, 6, 1, 15
# 
# Revision: 0
# Processed by: cddbd v1.5.2PL0 Copyright (c) Steve Scherf et al.
#
DISCID=fd106c13
DTITLE=Eldon Rathburn - Mostly Railroad Music[Eldon Rathburn]
DYEAR=1900
DGENRE=
TTITLE0=Three Calliope Pieces - The St. lawrence Tubular Bridge Mazurka Polka,
TTITLE1=Stravinsky on the Delta Queen,
TTITLE2=Honky-Tonks (City of Gold)
TTITLE3=Junction
TTITLE4=The Rise and Fall of the Steam Railroad
TTITLE5=Ghost Train
TTITLE6=Six Railroad Preludes - A Great Litle Train of Wales
TTITLE7=Tiddles of Paddington
TTITLE8=Spiral Tunnel Boogie
TTITLE9=In Memoriam - Jumbo
TTITLE10=Thoreau's Train
TTITLE11=Amtrak
TTITLE12=The Iron Horses of Delson
TTITLE13=Schoenberg vs. Gershwin
TTITLE14=Dorion Crossing
TTITLE15=Two Railoramas - Dvorak at 155th Street
TTITLE16=Hindemith Rides the Merchants Limited
TTITLE17=The Nomadic Five
TTITLE18=Turbo
EXTD=
EXTT0=
EXTT1=
EXTT2=
EXTT3=
EXTT4=
EXTT5=
EXTT6=
EXTT7=
EXTT8=
EXTT9=
EXTT10=
EXTT11=
EXTT12=
EXTT13=
EXTT14=
EXTT15=
EXTT16=
EXTT17=
EXTT18=
PLAYORDER=
